<?xml version="1.0" encoding="UTF-8" standalone="no"?>
<!DOCTYPE svg PUBLIC "-//W3C//DTD SVG 1.1//EN" "http://www.w3.org/Graphics/SVG/1.1/DTD/svg11.dtd">
<svg width="100%" height="100%" viewBox="0 0 325 315" version="1.1" xmlns="http://www.w3.org/2000/svg" xmlns:xlink="http://www.w3.org/1999/xlink" xml:space="preserve" xmlns:serif="http://www.serif.com/" style="fill-rule:evenodd;clip-rule:evenodd;stroke-miterlimit:10;">
    <g transform="matrix(1,0,0,1,0,-126.485)">
        <path d="M178.627,272.53L74.802,283.45L66.488,204.297C64.434,184.779 78.589,167.297 98.089,165.241L166.598,158.035L177.517,261.942L178.627,272.53Z" style="fill:rgb(35,31,32);fill-rule:nonzero;"/>
    </g>
    <g transform="matrix(1,0,0,1,0,-148.618)">
        <path d="M173.865,179.406L277.69,168.486L289.715,282.981L174.136,295.132L162.114,180.643L173.865,179.406Z" style="fill:rgb(35,31,32);"/>
    </g>
    <g transform="matrix(-0.99451,0.104637,0.104637,0.99451,250.805,71.4916)">
        <rect x="79.599" y="62.938" width="104.381" height="104.475" style="fill:rgb(35,31,32);"/>
    </g>
    <g transform="matrix(1,0,0,1,0,62.4593)">
        <path d="M264.931,175.889L185.232,184.27L174.319,80.367L289.334,68.271L296.535,136.833C298.582,156.35 284.434,173.833 264.931,175.889" style="fill:rgb(35,31,32);fill-rule:nonzero;"/>
    </g>
    <g transform="matrix(1,0,0,1,0,33.8691)">
        <path d="M54.307,260.562L89.708,216.812M77.231,20.569L46.082,59.06C38.751,68.123 35.31,79.732 36.529,91.331L54.307,260.562L226.257,242.477C237.847,241.257 248.479,235.483 255.817,226.416L286.503,188.491" style="fill:none;fill-rule:nonzero;stroke:rgb(35,31,32);stroke-width:7.39px;"/>
    </g>
    <g transform="matrix(1,0,0,1,0,-30.661)">
        <path d="M143.508,247.324L140.849,222.009L176.653,218.243L167.184,128.085L133.813,158.764L130.643,128.581L161.463,101.714L193.57,98.337L205.841,215.173L234.25,212.185L236.909,237.5L143.508,247.324Z" style="fill:white;fill-rule:nonzero;"/>
    </g>
</svg>
